<?xml version="1.0" encoding="UTF-8"?><svg id="Layer_1" xmlns="http://www.w3.org/2000/svg" viewBox="0 0 147.5 129.5"><defs><style>.cls-1{stroke-width:2.99px;}.cls-1,.cls-2,.cls-3,.cls-4,.cls-5,.cls-6,.cls-7,.cls-8,.cls-9,.cls-10,.cls-11{fill:none;}.cls-1,.cls-2,.cls-4,.cls-5,.cls-12,.cls-6,.cls-7,.cls-8,.cls-9,.cls-10,.cls-11,.cls-13{stroke-miterlimit:10;}.cls-1,.cls-10{stroke:#ba1661;}.cls-2{stroke:#b91761;stroke-width:1.05px;}.cls-3{stroke:#fff;stroke-linecap:round;stroke-linejoin:round;stroke-width:0px;}.cls-14{fill:#0052a5;}.cls-15{fill:#005ead;}.cls-16{fill:#fff;}.cls-17{fill:#933053;}.cls-18,.cls-12{fill:#b82962;}.cls-19{fill:#b82d62;}.cls-20{fill:#b82c62;}.cls-21{fill:#b91761;}.cls-22{fill:#ba1661;}.cls-23{fill:#c21460;}.cls-24{fill:#d186ac;}.cls-25,.cls-13{fill:#231f20;}.cls-26{fill:#1d519d;}.cls-4{stroke-width:.75px;}.cls-4,.cls-6{stroke:#0052a5;}.cls-5{stroke-width:1.06px;}.cls-5,.cls-9{stroke:#0055a6;}.cls-12,.cls-11{stroke:#c11460;}.cls-6{stroke-width:1.13px;}.cls-7{stroke:#1d519d;stroke-width:1.13px;}.cls-27{opacity:.67;}.cls-8{stroke:#005ead;}.cls-8,.cls-9,.cls-10,.cls-11,.cls-13{stroke-width:1px;}.cls-13{opacity:.82;stroke:#c51260;}</style></defs><line class="cls-8" x1="23.39" y1="52.28" x2="31.09" y2="55.8"/><line class="cls-8" x1="21.71" y1="43.89" x2="35.17" y2="52.28"/><line class="cls-8" x1="23.56" y1="38.03" x2="38.13" y2="47.39"/><line class="cls-8" x1="31.09" y1="33.77" x2="39.46" y2="42.71"/><line class="cls-8" x1="68.65" y1="7.17" x2="73.03" y2="18.07"/><line class="cls-8" x1="65.19" y1="10.28" x2="64.92" y2="15.94"/><line class="cls-8" x1="74.26" y1="4.86" x2="83.48" y2="17.32"/><line class="cls-8" x1="41.5" y1="27.29" x2="46.12" y2="31.95"/><line class="cls-8" x1="43.56" y1="21.03" x2="51.55" y2="29.09"/><line class="cls-8" x1="55.08" y1="13.7" x2="58.29" y2="20.74"/><line class="cls-6" x1="48.01" y1="15.94" x2="55.08" y2="25.44"/><line class="cls-8" x1="37.74" y1="32.95" x2="40.28" y2="36.94"/><path class="cls-14" d="m63.84,49.42l-6.43,15.88h-2.23l-1.94-11.54c-.02-.13-.04-.28-.06-.43s-.03-.32-.05-.48c-.06.17-.11.33-.17.48s-.11.3-.17.43l-4.75,11.54h-2.22l-2.58-15.88h1.93c.21,0,.38.05.51.16.13.11.21.25.23.42l1.53,10.4c.02.22.04.46.06.71s.03.51.05.78c.08-.28.17-.54.26-.79.09-.25.18-.48.27-.69l4.28-10.4c.07-.15.18-.28.33-.4.16-.12.34-.18.55-.18h.57c.21,0,.38.06.51.17.13.11.21.25.26.42l1.76,10.4c.04.21.07.44.1.68.03.24.05.5.07.76.08-.26.16-.52.23-.76.07-.24.15-.47.22-.68l4.05-10.4c.05-.15.16-.29.33-.41.17-.12.36-.18.57-.18h1.93Z"/><path class="cls-14" d="m78.27,49.42l-1.94,15.88h-2.47l.86-7.1h-7.11l-.87,7.1h-2.47l1.93-15.88h2.48l-.85,6.99h7.11l.85-6.99h2.48Z"/><path class="cls-14" d="m84.37,51.44l-.59,4.88h5.25l-.25,1.94h-5.24l-.61,5.02h6.61l-.25,2.02h-9.07l1.93-15.88h9.06l-.25,2.02h-6.58Z"/><path class="cls-14" d="m96.45,51.44l-.59,4.88h5.25l-.25,1.94h-5.24l-.61,5.02h6.61l-.25,2.02h-9.07l1.93-15.88h9.06l-.25,2.02h-6.58Z"/><path class="cls-14" d="m113.02,63.21l-.25,2.08h-8.41l1.93-15.88h2.46l-1.68,13.79h5.95Z"/><path class="cls-14" d="m119.35,51.44l-.59,4.88h5.25l-.25,1.94h-5.24l-.61,5.02h6.61l-.25,2.02h-9.07l1.93-15.88h9.06l-.25,2.02h-6.58Z"/><path class="cls-14" d="m133.49,49.42c.87,0,1.63.09,2.25.28.63.19,1.15.45,1.56.79.41.34.71.74.9,1.22s.29,1,.29,1.58c0,.62-.09,1.21-.27,1.76-.18.55-.44,1.04-.77,1.48-.33.44-.74.82-1.23,1.14-.48.32-1.03.56-1.63.73.28.18.51.44.69.78l3.08,6.11h-2.2c-.44,0-.73-.17-.87-.52l-2.61-5.4c-.09-.18-.21-.32-.33-.4-.13-.08-.32-.12-.58-.12h-1.27l-.79,6.44h-2.45l1.92-15.88h4.3Zm-.97,7.64c.59,0,1.11-.09,1.55-.26.44-.17.81-.41,1.1-.71.29-.3.51-.66.66-1.07s.22-.86.22-1.33c0-.74-.23-1.31-.69-1.71-.46-.4-1.15-.6-2.09-.6h-1.87l-.69,5.69h1.8Z"/><path class="cls-14" d="m51.57,82.21l-.25,2.08h-8.41l1.93-15.88h2.46l-1.68,13.79h5.95Z"/><path class="cls-14" d="m65.94,84.3h-1.9c-.22,0-.39-.05-.51-.16s-.21-.25-.26-.42l-.74-3.56h-6.13l-1.62,3.56c-.07.15-.19.29-.34.41-.16.12-.34.18-.54.18h-1.92l7.66-15.88h2.5l3.8,15.88Zm-3.78-5.93l-1.25-5.94c-.04-.23-.08-.49-.14-.78s-.11-.62-.16-.97c-.12.35-.25.68-.37.98-.12.3-.24.56-.34.8l-2.69,5.92h4.94Z"/><path class="cls-14" d="m74.87,68.42c.84,0,1.57.08,2.18.25.61.17,1.11.41,1.5.72.39.31.67.69.86,1.13.18.44.27.93.27,1.48,0,.46-.06.9-.19,1.32s-.32.81-.58,1.16c-.26.36-.58.67-.98.95s-.86.51-1.4.68c.91.22,1.59.59,2.04,1.11.45.52.67,1.18.67,1.98,0,.73-.13,1.41-.4,2.03-.27.62-.65,1.15-1.15,1.6-.5.45-1.11.81-1.82,1.06-.72.25-1.53.38-2.43.38h-5.36l1.93-15.88h4.86Zm-1.23,13.91c.54,0,1.01-.07,1.41-.22.4-.15.73-.35.99-.62.26-.27.46-.59.58-.96.13-.38.19-.79.19-1.26,0-.64-.21-1.15-.62-1.52-.41-.38-1.06-.56-1.94-.56h-2.86l-.62,5.15h2.86Zm-1.41-11.96l-.61,5.07h2.29c1.08,0,1.89-.26,2.45-.78.55-.52.83-1.26.83-2.23,0-.71-.21-1.23-.62-1.57-.42-.33-1.05-.5-1.91-.5h-2.42Z"/><path class="cls-25" d="m43.28,93.01v-2.45h.62v2.44c0,.74.45,1.07,1.13,1.07s1.13-.33,1.13-1.07v-2.44h.62v2.45c0,1.04-.65,1.57-1.76,1.57s-1.75-.53-1.75-1.57Z"/><path class="cls-25" d="m49.51,94.51v-1.79c0-.41-.24-.63-.62-.63-.41,0-.82.35-.82.9v1.52h-.59v-2.83h.44l.08.68c.24-.57.71-.75,1.09-.75.61,0,1.01.36,1.01,1.04v1.86h-.59Z"/><path class="cls-25" d="m50.75,91.19v-.47h.62v.47h-.62Zm.02,3.33v-2.83h.59v2.83h-.59Z"/><path class="cls-25" d="m52.86,94.51l-1.12-2.83h.64l.84,2.27.84-2.27h.59l-1.12,2.83h-.68Z"/><path class="cls-25" d="m54.85,93.1c0-.91.5-1.49,1.39-1.49.77,0,1.35.34,1.35,1.24,0,.09,0,.21-.02.32h-2.12c0,.64.3.97.85.97.38,0,.75-.14.75-.57,0-.05,0-.09-.01-.12l.5.06s.01.07.01.12c0,.67-.61.95-1.3.95-.88,0-1.4-.53-1.4-1.48Zm2.16-.24s.01-.06.01-.11c0-.52-.34-.73-.76-.73-.44,0-.78.27-.79.84h1.55Z"/><path class="cls-25" d="m59.8,92.93c.01-.07.02-.12.02-.19,0-.36-.14-.63-.49-.63-.37,0-.6.4-.6.85v1.56h-.59v-2.83h.44l.09.64c.15-.46.5-.68.86-.68.53,0,.81.39.81.89,0,.09-.01.18-.03.27l-.51.14Z"/><path class="cls-25" d="m62.73,92.65s0-.08,0-.11c0-.4-.37-.56-.75-.56s-.69.16-.69.46c0,.32.33.38.69.42h.11c.53.08,1.19.13,1.19.81,0,.62-.51.91-1.29.91-.69,0-1.29-.18-1.29-.75,0-.07.01-.16.04-.24l.48-.03s-.02.09-.02.14c0,.38.35.5.77.5.44,0,.73-.17.73-.48,0-.29-.35-.37-.74-.41h-.1c-.52-.07-1.13-.16-1.13-.8,0-.56.51-.9,1.23-.9.58,0,1.24.21,1.24.85,0,.04,0,.08-.01.16l-.46.02Z"/><path class="cls-25" d="m63.83,91.19v-.47h.62v.47h-.62Zm.02,3.33v-2.83h.59v2.83h-.59Z"/><path class="cls-25" d="m67.4,93.58c.02.06.02.1.02.15.03.55-.37.85-1.02.85s-1.05-.3-1.05-.99v-1.48h-.52v-.42h.23c.31,0,.35-.16.5-.81h.35l.04.8h1.09v.42h-1.09v1.43c0,.41.17.61.56.61.29,0,.52-.16.51-.52,0-.07-.01-.12-.02-.19l.41.15Z"/><path class="cls-25" d="m68.72,94.63l-1.22-2.95h.65l.85,2.27.78-2.27h.59l-1.14,3.05c-.24.63-.49.95-1.09.95-.46,0-.8-.2-.8-.75,0-.05,0-.1,0-.15l.55-.09c-.01.06-.02.11-.02.17,0,.26.11.41.32.41.24,0,.38-.17.48-.46l.07-.19Z"/><path class="cls-25" d="m71.88,93.1c0-.91.58-1.48,1.49-1.48s1.5.57,1.5,1.48-.58,1.48-1.5,1.48-1.49-.58-1.49-1.48Zm2.39,0c0-.7-.35-1.07-.9-1.07s-.89.37-.89,1.07.35,1.06.89,1.06.9-.37.9-1.06Z"/><path class="cls-25" d="m75.63,92.1h-.51v-.42h.51v-.28c0-.51.33-.94,1.03-.94.54,0,.94.21.97.69,0,.06,0,.12,0,.12l-.38.13c0-.05,0-.07,0-.11,0-.27-.18-.43-.5-.43s-.53.18-.53.54v.28h1.01v.42h-1.01v2.41h-.59v-2.41Z"/><path class="cls-25" d="m82.33,94.51l-.92-3.2-.91,3.2h-.65l-1.22-3.95h.63l.93,3.18h.01l.89-3.18h.61l.9,3.18h.01l.93-3.18h.63l-1.22,3.95h-.64Z"/><path class="cls-25" d="m84.55,91.19v-.47h.62v.47h-.62Zm.02,3.33v-2.83h.59v2.83h-.59Z"/><path class="cls-25" d="m87.79,92.65s0-.08,0-.11c0-.4-.37-.56-.75-.56s-.69.16-.69.46c0,.32.33.38.69.42h.11c.53.08,1.19.13,1.19.81,0,.62-.51.91-1.29.91-.69,0-1.29-.18-1.29-.75,0-.07.01-.16.04-.24l.48-.03s-.02.09-.02.14c0,.38.35.5.77.5.44,0,.73-.17.73-.48,0-.29-.35-.37-.74-.41h-.1c-.52-.07-1.13-.16-1.13-.8,0-.56.51-.9,1.23-.9.58,0,1.24.21,1.24.85,0,.04,0,.08-.01.16l-.46.02Z"/><path class="cls-25" d="m88.76,93.09c0-.93.53-1.47,1.4-1.47.76,0,1.28.34,1.28.93,0,.08-.01.17-.04.25l-.48.03s.01-.1.01-.14c0-.47-.37-.64-.76-.64-.51,0-.81.36-.81,1.03s.33,1.07.86,1.07c.3,0,.74-.18.74-.62,0-.05,0-.09-.01-.14l.49.06c.01.06.02.11.02.17,0,.65-.62.97-1.24.97-.91,0-1.45-.54-1.45-1.5Z"/><path class="cls-25" d="m91.91,93.1c0-.91.58-1.48,1.49-1.48s1.5.57,1.5,1.48-.58,1.48-1.5,1.48-1.49-.58-1.49-1.48Zm2.39,0c0-.7-.35-1.07-.9-1.07s-.89.37-.89,1.07.35,1.06.89,1.06.9-.37.9-1.06Z"/><path class="cls-25" d="m97.5,94.51v-1.79c0-.41-.24-.63-.62-.63-.41,0-.82.35-.82.9v1.52h-.59v-2.83h.44l.08.68c.24-.57.71-.75,1.09-.75.61,0,1.01.36,1.01,1.04v1.86h-.59Z"/><path class="cls-25" d="m100.68,92.65s0-.08,0-.11c0-.4-.37-.56-.75-.56s-.69.16-.69.46c0,.32.33.38.69.42h.11c.53.08,1.19.13,1.19.81,0,.62-.51.91-1.29.91-.69,0-1.29-.18-1.29-.75,0-.07.01-.16.04-.24l.48-.03s-.02.09-.02.14c0,.38.35.5.77.5.44,0,.73-.17.73-.48,0-.29-.35-.37-.74-.41h-.1c-.52-.07-1.13-.16-1.13-.8,0-.56.51-.9,1.23-.9.58,0,1.24.21,1.24.85,0,.04,0,.08-.01.16l-.46.02Z"/><path class="cls-25" d="m101.78,91.19v-.47h.62v.47h-.62Zm.02,3.33v-2.83h.59v2.83h-.59Z"/><path class="cls-25" d="m105.13,94.51v-1.79c0-.41-.24-.63-.62-.63-.41,0-.82.35-.82.9v1.52h-.59v-2.83h.44l.08.68c.24-.57.71-.75,1.09-.75.61,0,1.01.36,1.01,1.04v1.86h-.59Z"/><path class="cls-25" d="m107.48,92.96v-.49h2.43v.49h-2.43Z"/><path class="cls-25" d="m111.72,94.51v-3.95h3.06v.51h-2.44v1.17h2.16v.49h-2.16v1.26h2.44v.51h-3.06Z"/><path class="cls-25" d="m115.17,93.82c0-.64.62-.74,1.17-.81.39-.06.77-.13.77-.49,0-.28-.2-.5-.61-.5-.34,0-.62.18-.62.56,0,.05,0,.1.01.13l-.53.03s-.01-.1-.01-.16c0-.62.5-.97,1.18-.97s1.16.37,1.16,1.04v1.17c0,.2.11.32.25.32.09,0,.19-.04.26-.09v.4c-.16.08-.34.11-.48.11-.23,0-.48-.14-.53-.49,0-.02-.01-.1-.01-.12-.23.45-.73.62-1.13.62-.47,0-.87-.24-.87-.76Zm1.92-.75c-.15.16-.39.21-.6.24-.35.05-.71.1-.71.44,0,.28.22.42.5.42.37,0,.82-.23.82-.71v-.38Z"/><path class="cls-25" d="m120.64,94.51l-.12-.68c-.25.57-.71.75-1.07.75-.61,0-1.01-.36-1.01-1.05v-1.85h.59v1.78c0,.42.23.64.62.64s.8-.36.8-.91v-1.51h.59v2.09l.08.74h-.49Z"/><path class="cls-25" d="m122.91,92.53c0-1.26.81-2.04,1.97-2.04,1.41,0,1.87.76,1.87,1.44,0,.07,0,.13-.01.16l-.61.1c.01-.08.02-.14.02-.21,0-.65-.55-.98-1.22-.98-.8,0-1.37.54-1.37,1.52,0,1.15.68,1.54,1.39,1.54.61,0,1.21-.33,1.21-.99,0-.08-.01-.17-.03-.24l.61.08c.01.06.02.12.02.18,0,.71-.5,1.48-1.84,1.48s-2-.78-2-2.05Z"/><path class="cls-25" d="m127.32,94.51v-3.95h.59v3.95h-.59Z"/><path class="cls-25" d="m128.44,93.82c0-.64.62-.74,1.17-.81.39-.06.77-.13.77-.49,0-.28-.2-.5-.61-.5-.34,0-.62.18-.62.56,0,.05,0,.1.01.13l-.53.03s-.01-.1-.01-.16c0-.62.5-.97,1.18-.97s1.16.37,1.16,1.04v1.17c0,.2.11.32.25.32.09,0,.19-.04.26-.09v.4c-.16.08-.34.11-.48.11-.23,0-.48-.14-.53-.49,0-.02-.01-.1-.01-.12-.23.45-.73.62-1.13.62-.47,0-.87-.24-.87-.76Zm1.92-.75c-.15.16-.39.21-.6.24-.35.05-.71.1-.71.44,0,.28.22.42.5.42.37,0,.82-.23.82-.71v-.38Z"/><path class="cls-25" d="m131.74,91.19v-.47h.62v.47h-.62Zm.02,3.33v-2.83h.59v2.83h-.59Z"/><path class="cls-25" d="m134.72,92.93c.01-.07.02-.12.02-.19,0-.36-.14-.63-.49-.63-.37,0-.6.4-.6.85v1.56h-.59v-2.83h.44l.09.64c.15-.46.5-.68.86-.68.53,0,.81.39.81.89,0,.09-.01.18-.03.27l-.51.14Z"/><path class="cls-25" d="m135.59,93.1c0-.91.5-1.49,1.39-1.49.77,0,1.35.34,1.35,1.24,0,.09,0,.21-.02.32h-2.12c0,.64.3.97.85.97.38,0,.75-.14.75-.57,0-.05,0-.09-.01-.12l.5.06s.01.07.01.12c0,.67-.61.95-1.3.95-.88,0-1.4-.53-1.4-1.48Zm2.16-.24s.01-.06.01-.11c0-.52-.34-.73-.76-.73-.44,0-.78.27-.79.84h1.55Z"/><line class="cls-13" x1="82.6" y1="76.55" x2="138.33" y2="76.55"/><path class="cls-4" d="m12.93,67.19c-.58,1.1-1.11,2.29-1.59,3.58"/><path class="cls-6" d="m88.1,13.41c-4.76,4.42-11.74,6-17.95,4.33-6.71-1.8-12.55-6.23-19.68-3.15-14,6.05-6.75,25.78-14.2,36.3-4.73,6.68-12.75,7.93-18.82,12.85"/><path class="cls-14" d="m16.42,64.77c.11-.08.68-.38,1.27-.66-.42.09-.58.04.23-.35.2-.1.41-.18.61-.25.11-.05.23-.11.39-.17.13-.06.37-.16.63-.27.4-.3.8-.56,1.21-.78.33-.25.71-.43,1.11-.53.55-.4,1.1-.81,1.63-1.27-.37.19-.75.37-1.13.55.61-.48,1.22-1,1.85-1.6-1.16.68-2.31,1.38-3.43,2.11-1.3.52-2.51,1.26-3.75,1.92.04-.04.09-.08.13-.12-.21.11-.41.24-.62.37-.1.05-.21.11-.31.16-.05.04-.09.07-.14.11-.86.55-3.33,2.72-3.55,3.03.18-.08-.4.29.39.24.29-.2,2.71-1.97,3.02-2.11.15-.13.31-.26.47-.39Z"/><path class="cls-14" d="m10.29,72.49c.46-.51.95-.98,1.41-1.49-.33.36.11-.12.33-.34.3-.39.59-.8.89-1.18.85-1.06,1.83-2.47,2.94-3.52-.39,0-.75-.11-.74-.22-.19.2-.39.37-.57.58,0,.01-.02.03-.03.04-.36.38-.69.77-1,1.2,0,0-.02.02-.02.03.34-.54.69-1.08,1.06-1.6-.51.44-.98.93-1.41,1.46-.04.03-.07.07-.1.1-.12.19-.25.37-.37.55-.05.1-.1.2-.17.29-.12.29-.22.49-.31.64-.36.28-.71.56-.99.94-.74.95-1.55,2.2-2.08,3.15-.08.18-.14.37-.21.56.39-.5.85-.9,1.37-1.2Z"/><path class="cls-14" d="m74.12,17.76s0,0,0,0c0,0,0,0,0,0,0,0,0,0,0,0,0,0,0,0,0,0Z"/><path class="cls-14" d="m78.21,16.11s.04-.01.07-.02c.07-.03.08-.03-.07.02Z"/><path class="cls-14" d="m92.29,9.32c-.43.49-1.19.94-1.5,1.19-.17.13-.37.27-.54.42-.22.13-.42.29-.62.47-.22.15-.44.31-.64.49-.21.15-.37.29-.38.35-.61.4-1.14.93-1.71,1.44-.08.06-.14.11-.22.17-.07.04-.21.13-.26.16-.03.01-.21.13-.31.21.07-.05-.07.04-.14.07.26-.13-.28.13-.66.44-.79.48-1.04.64-1.4.93-.03.02-.06.04-.1.06.02,0,.03-.01.04-.01,0,0,0,0,0,0-.03.01-.08.03-.12.05-.09.04-.29.13-.37.18-.88.44-1.02.52-1.86.89-.17.09-.47.23-.71.36,0,0,0,0,0,0,0,0-.02,0-.03,0-.18.06-.37.1-.42.14-.22.08-.56.32-.56.3-.02,0-.04.02-.06.03.04,0,.02,0,0,0,0,0-.02,0-.02,0-.02,0,0,0,.02,0-.01,0-.02,0-.03,0,.08-.01-.05,0-.09.02-.04,0-.12.03-.18.05,0,0,0,0,0,0-.11-.01-.15.02-.22.05-.12.06-.25.22-.3.2-.01,0-.09,0-.12,0,0,0-.02,0-.03,0,0,0,.01,0,0,0,0,0-.01,0-.02,0,0,0,0,0,0,0,0,0,0,0,0,0-.01,0-.02.01-.03.02,0,0-.02,0-.02,0,0,0,0,0,.01,0,0,0,0,0,.01,0,0,0,.02,0,.03,0,0,0,.01,0,.02,0,0,0,0,0,0,0,0,0,0,0,.01,0,0,0,0,0,0,0,0,0,0,0,0,0,.03.02.12.05.16.06.11.03.28-.09.33-.08,0,0,.02,0,.03,0,0,0,0,0,0,0,0,0,.02,0,.02,0,0,0,.01,0,.02,0,0,0,0,0,0,0,0,0,0,0,0,0,.04.04.11.06.18.04.03,0,.06.01.12.01,0,0-.04,0,0,0,.23.08.69-.09.93-.12.45.07,1.32-.27,1.72-.3.04,0,.02,0,0,0,.33-.04.62-.1.82-.16.06-.02.1-.04.14-.06.12-.04.22-.07.04-.04.08-.01.16-.02.25-.03.45-.21.5-.06,1.49-.65.15-.08,0,0-.07.02.3-.11.58-.26.84-.47-.01,0-.02.01-.04.03-.13.1.03-.01.1-.05.53-.28.73-.48.83-.52-.03.01-.04.01-.06.02.04-.02.08-.04.13-.06.38-.23.21-.15.41-.27,1.03-.69,1.6-1.37,2-1.84.41-.3.77-.65,1.08-1.07,0,0,.03-.04,0,0-.01.02.06-.07.08-.1.06-.04.14-.25.16-.26.18-.23.38-.56.51-.88.15-.23.2-.33.42-.65.23-.3.69-.8.93-1.24Z"/><path class="cls-14" d="m73.04,18.07s.03,0,.05,0c0,0-.03,0-.05,0,0,0,0,0,0,0Z"/><path class="cls-14" d="m73.04,18.07s0,0,0,0c-.02,0-.02,0,0,0Z"/><polygon class="cls-14" points="73.04 18.07 73.04 18.07 73.04 18.07 73.04 18.07"/><path class="cls-21" d="m66.7,8.07s0,0,0,0c0,0,0,0,0,0,0,0,0,0,0,0Z"/><path class="cls-21" d="m79.61,3.38c-.65-.08-1.27-.12-1.88-.17-.17-.03-.48.01-.7,0,.04,0,.05,0,.03,0-.16-.03-.32-.02-.48,0-.65.09-1.51.17-1.94.36-.34.13-.5.17-.79.29-.01,0-.02,0-.03,0-.21.05-.41.12-.61.2,0,0,0,0,0,0-.56.22-.94.28-1.88.66-.73.4-.66.42-1.05.65-.04.03-.03.02.02,0,.1-.06-.04.03-.09.06-.04.02-.07.05-.11.07-.01,0-.03.01-.05.02-.03.01-.06.02-.08.03-.37.18-.62.45-.93.62-.24.11-.73.55-.96.8-.49.3-.87.74-1.34,1.07-.01,0-.02,0-.03.02,0,0,0,0,0,0,0,0-.01,0-.01,0,0,.01.02.02.03.01,0,0,.01,0,0,0,.07-.01.2-.06.29-.1.77-.39,1.64-.77,2.2-1.15-.1.03.17-.06.05-.02-.09.04.27-.1.3-.12-.08.03-.08.03,0,0,.21-.07.74-.38.72-.35.79-.22,1.16-.59,1.77-.81.07-.02.28-.1.21-.07.08-.03.17-.06.05-.02.16-.04.33-.11.61-.22.04-.01.14-.05.16-.06,0,0,0,0,0,0,0,0,0,0,0,0,0,0,0,0,0,0,0,0,0,0,0,0,0,0,.01,0,.02,0,0,0,0,0,0,0-.01,0-.02,0-.03.01,0,0,0,0,0,0,0,0,.02,0,.03-.01.2,0,.37-.03.57-.08.15-.04.35-.11.53-.2.02-.01.01,0-.03,0,.02,0,.03-.01.05-.02-.01,0-.02,0-.01,0,0,0,0,0,.01,0,0,0,0,0,0,0,0,0,0,0,0,0,.1-.04.13-.05.14-.06-.08.04-.09.05.02,0,0,0,.05-.02,0,0,.23-.09.23-.05.73-.28.57-.32,1.1-.62,1.79-.73.14-.03.27-.07.4-.11.17-.04.34-.07.51-.08.54-.04,1.17-.15,1.76-.21Z"/><path class="cls-21" d="m73.15,5.15s.02,0,.03-.01c0,0,0,0-.03.01Z"/><polygon class="cls-16" points="5.16 70.16 5.16 70.17 5.16 70.17 5.16 70.16"/><path class="cls-16" d="m6.31,71.3c.16-.25.38-.47.48-.76.13-.57.53-1,.81-1.5.24-.42.43-.68.71-1.22.43-.74.73-1.71,1-2.42.46-.82,1.48-2.06,1.64-2.74.19-.24.41-.46.55-.73.28-.68.44-1.4.88-1.99.15-.29.44-.51.61-.77-.02,0,.05-.03.11-.07.07-.06.11-.14.14-.22.05-.06.25-.25.37-.41.23-.61.62-.89.82-1.4-.29.4-1,.83-1.15,1.18-.03.02-.16.14-.18.15-.15.11-.28.16-.4.33-.01.02,0,0,0,0-.27.12-.46.38-.7.54-.72.72-1.12,1.43-1.65,2.24-.09.07-.43.36-.6.7-.01.03-.03.05-.04.08-.01.03,0,.02,0,0-.03.05-.05.09-.08.14-.03.02-.06.05-.08.07-.95,1.13-2.01,2.23-2.46,3.67-.69,1.46-.75,1.43-1.39,2.67-.26.43-.44.75-.56,1.31,0-.01,0-.01,0,0,0,.02-.01.04-.01.06,0,0,0-.03.01-.05,0,0,0,0,0,0-.02.07-.04.13-.05.15-.22.31-.38.64-.5,1-.11.27-.27.5-.35.78-.02.04-.03.09-.04.13.32.06.63.19.92.35.32-.5.72-.93,1.17-1.29Z"/><path class="cls-9" d="m13.67,67.19c1.47-1.03,2.8-2.34,4.08-3.59"/><path class="cls-5" d="m12.1,69.25c2.52-4.3,6.72-6.72,10.74-8.95"/><path class="cls-10" d="m58.46,116.61c.83.18,1.69.35,2.5.14.5-.13.96-.41,1.37-.73,1.39-1.09,2.3-2.78,2.46-4.54s-.44-3.59-1.61-4.92c.99,1.02,1.76,2.29,2.03,3.69s0,2.93-.86,4.06c-1.01,1.32-2.68,1.94-4.3,2.29-1.01.22-2.05.36-1.6.02Z"/><g class="cls-27"><path class="cls-22" d="m15.58,88.13s0-.04-.01-.06c.01.12.03.24.05.33,0-.07-.02-.14-.03-.21,0-.02,0-.03-.01-.06Z"/><path class="cls-22" d="m84.61,111.95s0,0,0,0c-.09-.04-.06-.03,0,0Z"/><path class="cls-22" d="m91.29,109.72c-1.29.19-1.57.33-2.33.55-1.14.33-1.16.51-2.39.79-.46.11-.68.24-1.15.35-.23.05-.16.06-.57.09-.06,0-.48.02-.65,0-.75-.08-1,.04-1.73-.04-1.76-.53-2.97.02-4.06.25-.19.04-.35.04-.42.04-.17,0-.43.05-.53.08-1.24.33-2.44.55-3.68.86-.02,0-.05.01-.07.02-.93.29-1.93.8-2.9,1.24-.1.04-.56.31-.62.32-.77.11-1.64.02-2.34.14-.53.09-.24-.02-1.4.05-.17,0-.55.04-1.07-.04-.03,0-.1-.02-.23-.05-.7-.21-1.44-.15-2.13-.37-.47-.14-.92-.24-1.4-.35-1-.23-7.75-.7-9.88-.9-1.15-.11-2.07-.28-4.67-.75-.14-.03-.27-.06-.41-.08-.15-.01-.4-.09-.66-.14-1.41-.3-2.24-.87-3.69-1.55-.05-.03-1.96-1.03-2.01-1.06-1.13-.76-1.7-1.02-2.58-1.61-2.85-1.92-5.78-4.07-8-6.05-2.5-2.39-1.67-1.49-3.55-3.89-.02-.02-.04-.04-.05-.06-1.3-1.35-.44-.42-1.93-2.6-.01-.02-.03-.04-.04-.07-1.22-2.2-2.33-4.46-3.49-6.69-.02-.04-.03-.07-.05-.11-.22-.7-.96-2.86-1.19-3.37-.23-.34-.93-2.74-1.33-4.56,0-.02-.01-.04-.02-.07-.58-1.81-.81-2.38-.87-3.86-.14-2.08-.12-4.95.04-6.57.06-.32.15-.63.22-.94.9-1.79,1.47-2.48,2.8-4.07.63-.98,1.71-2.11,3.13-3.13.02-.01.04-.03.06-.04.68-.59,1.38-1.46,1.88-2.04-.75.47-1.61.96-2.34,1.28-.47.14-.19-.01-.63.16-.2.07-.2.12-.31.15-.21.12-.17.05-.38.19-.25.09-.33.06-.56.19.16-.27-.64.3-.9.4l-.22.11c-1.61,1.57-2.87,2.21-4.63,3.99-.06.05-.31.35-.37.4-.82.42-1.49,1.13-2.05,1.87-.48.61-.83,1.13-1.51,1.86-.91.86-1.73,1.81-2.25,2.97-1.4,2.07-2.19,4.45-2.27,6.55-.13,1.11-.4,1.7-.18,3.47.15,1.72.39,3.55.97,5.15.19.79.17.79.34,1.41.07.41.12.44.36,1.14.42,1.96.89,3.5,1.4,4.86.83,3.42,1.58,6.06,3.76,9.06.02.02.45.58.17.22.11.27,1.3,1.7,1.93,2.26.62.47.61.7,1.34,1.44.15.13.55.62.22.2.47.64.98,1.26,1.57,1.79.06.05.12.09.17.13.07.06.14.13.2.2,2.12,2.47,3.76,3.41,5.68,4.75,1.84,1.27,2.01,1.23,3.98,2.46.84.53,2.49,1.34,2.85,1.49.33.14,2.28,1.28,2.55,1.41.48.23,2.47,1.09,2.62,1.14,1.36.47,2.79.96,3.95,1.21.13.03,1.23.25,1.34.27,2.27.48,3.09.56,3.98.59,2.15.08,4.34.23,6.45-.29,3.48-.7,9.84-2.2,10.44-2.25.86-.07.96-.08,1.37-.09,1.43-.05,2.51.2,4.26-.05.44-.06.68-.04,1.12-.14.08-.02.48-.02.58-.01.5.03.1-.05.8,0,.14,0,.94.23.94.24.13.05,1.96.17,2.83.17s.73,0,1.97-.48c1.58-.62,3.25-2.09,3.66-2.44.03-.02.05-.04.08-.06.54-.34,1.08-.61,1.61-.91-.01.01-.03.02-.04.04.65-.3,1.31-.77,2.04-.75.2.02.55.08.9.06.98.03.96-.06,1.85-.11-.13.01-.15.02-.04.01.7.03,1.4-.15,2.06-.41,1.34-.56,2.37-1.38,2.97-2.02.68-.66.8-.83,1.09-1.21.31-.37.61-.78.71-1.25.38-1.56-.72-2.8-2.48-2.54Z"/></g><path class="cls-10" d="m65.13,108.15s-.01-.03-.02-.05c-.02-.08-.04-.16-.09-.23-.13-.19-.2-.2-.29-.26-.07-.06-.12-.11-.18-.16,0,0,0-.01,0-.02-.03-.32-.5-1.03-.84-1.27-.07-.05-.16-.08-.23-.11-.17-.1-.28-.11-.41-.21-.14-.08-.27-.14-.41-.2-.38-.29-.83-.61-1.21-.91.09.12.19.24.28.36-.01-.01-.02-.02-.03-.03.61.92,1.01,1.91,1.56,2.86.46.61.73,1.32,1.07,1.99.19.53.51,1.02.48,1.6.01.11.06.51.08.43,0-.14.04-.27.07-.4.03-.08.05-.15.09-.23.23-.45.31-1.11.26-1.52.04-.56.1-1.13-.16-1.66Z"/><path class="cls-10" d="m64.53,107.43s-.03-.03,0,0h0Z"/><path class="cls-22" d="m64.31,106.32c.29.43.68,1.2.84,1.5-.11-.58-.41-1.1-.84-1.5Z"/><path class="cls-1" d="m21.23,72.59c-1.03,1.19-2.15,2.31-3.36,3.32-.74.62-1.51,1.22-2.08,1.99-.92,1.25-1.24,2.86-1.32,4.42-.39,7.27,3.58,14.03,7.93,19.84,4.18,5.58,9.02,10.92,15.27,13.94,5.88,2.83,12.8,3.4,19.04,1.54,1.42-.42,3-.95,4.32-.28"/><path class="cls-22" d="m23.41,70.72s0,0,0,0c.01-.02.01-.03,0,0Z"/><path class="cls-22" d="m24.77,68.32s.01,0,.04-.09c0,0,0,0,0,0,0,0,0,.02-.04.09Z"/><path class="cls-22" d="m25.7,62.82c-.03.39-.15.77-.28,1.14,0,0-.01,0-.02-.01,0-.02-.01-.04-.02-.06.06-.55,0-1.1.11-1.65-.09.13-.13.32-.2.48-.02.07-.04.15-.07.23-.01-.16-.02-.32.02-.45.06-.12.02-.07-.04,0-.22.41-.17.92-.26,1.37,0,.01,0,.03,0,.04-.04.1-.09.2-.09.32-.07.23-.28.72-.34,1.06-.06.15-.11.28-.16.41-.04.08-.09.17-.12.25,0,0,0,0,0-.02-.01.02-.04.09-.06.13-.03.05-.05.1-.06.15-.02.03-.05.1-.05.14,0,0,0,.02,0,.03-.01.03-.02.05-.03.08-.35.72-.47,1.01-.53,1.19-.01.05-.04.11-.07.17-.05.07-.08.13-.12.2-.08.12-.15.24-.17.31.02-.05.02-.06.01-.03-.2.45-.64.89-.9,1.62,0,0-.07.17-.1.24-.16.37-.15.43-.23.64.07-.12,0,0-.03.09,0,0,0,0,0,0,0,0,0,0,0,.01-.06.08-.1.18-.14.28.11-.24.04-.1,0-.02-.05.06-.2.42-.14.29,0,.01,0,.02-.01.03-.04.04-.07.09-.1.14-.41.38-.75.84-.98,1.38-.05.06-.1.11-.13.16-.12.18-.32.32-.38.53-.03.11,0,.22.04.31-.56.63-1.14,1.25-1.65,1.93.41-.32.84-.63,1.26-.94-.16.18-.31.36-.51.52-.56.47-1.21.82-1.66,1.42.86-.64,2.03-.87,2.83-1.55.38-.19.79-.5,1.06-.88.07-.09.13-.17.19-.25.06-.05.1-.12.15-.17.18-.09.37-.23.47-.31.22-.15.37-.36.42-.52.11-.23.2-.47.29-.71.07-.12.16-.23.22-.36.03-.07.06-.13.09-.2,0,.01,0,.02,0,0,.21-.38.31-.51.38-.72.02-.04,0-.01-.01.02.04-.09.07-.19.1-.29.06-.14.07-.14.2-.4.43-.76.6-1.19.8-1.97.07-.16.11-.25.13-.31,0,0,0-.03.02-.06,0,0,0,0,.01-.02,0,.01,0,0-.01.02,0,0,0,0,0,0,0,0,.01-.01.02-.03,0,0,0,0,0,0,0,0,0,0,0,0,.01-.01,0-.01.02-.03.09-.24.11-.18.15-.47,0,.01,0,.02.01-.04.02-.16.06-.23.03-.49.04-.43.02-.5.01-.63.01-.04.03-.08.04-.11.24-.85.52-1.69.6-2.57.07-.34.07-.8.02-1.07Z"/><path class="cls-22" d="m20.26,71.65c-.27.54-.63,1.04-.87,1.61.34-.51.8-.88,1-1.47.15-.26.49-.56.59-.77-.24.21-.53.37-.72.63Z"/><path class="cls-22" d="m20.49,71.11c-.25.29-.36.36-.49.73-.05.1-.09.21-.1.34.1-.34.41-.58.63-.81.1-.08.19-.16.24-.2.59-.34,1.16-1.13,1.61-1.81-.65.58-1.27,1.14-1.89,1.75Z"/><path class="cls-22" d="m78.15,115.56c-.08-.1-.12-.18-.24-.3-.3-.29-.56-1.02-.94-.84s-.36.23-.17.58c.24.45.84,1.33.67,1.8-.15.39-.17.79-.46,1.07-.05.04-.11.08-.17.09,0,0,0,0-.02,0-.1.04-.59,0-.97-.01-.08,0-.17,0-.25-.02-.05,0-.14-.03-.18-.06,0,0,0,0,0,0,0,0,0,0,.01,0,0-.01-.02-.01-.03-.02-.2-.15-.73-.91-.81-1.21-.13-.47-.08-.73.12-1.21.13-.31.52-.55.85-.64.38-.1,1.5.49,1.75.18,1.03-1.29-3.63-.72-3.88.76-.22,1.31.12,2.91,1.27,3.57.81.47,1.97.36,2.81-.06.78-.4.88-1.3.94-2.09.04-.52.03-1.23-.29-1.6Z"/><path class="cls-22" d="m66.01,110.52c-.11-.51.05-1.31-.03-1.79-.16-1.03-1-3.27-1.72-2.56-.56.55.87,1.41,1.02,2.14.05.28.36.96.03,1.03-.16.03-.11-.23-.11-.13,0,.27.23.74-.01.77-.1.01-.02-.21-.06-.21-.44,0-.16,1.15-.27,1.4-.24.58-.23.97-.28,1.18-.09.38.09,1.01-.22,1.02-.22,0-.04-.51-.14-.41-.25.26.05.7-.02,1.04-.21.99-1.29,2.17-1.95,2.66s-1.82.76-2.96,1.08c-.37.1-.75-.06-1.09.13-.68.37-1.9-.58-2.17.1-.33.85,1.66.49,2.55.61.38.05.77.14,1.12.2.24.04.6.08.9.04,1.06-.12,2.21-1.01,3.12-2.05,0,0,0,0,.01-.01.55-.46.87-.88,1.22-1.63.17-.37.47-1.12.73-1.89.12-.35.27-.69.34-1.03.09-.44.07-1.36,0-1.67Z"/><path class="cls-3" d="m66.21,112.62s-.02,0-.03,0"/><path class="cls-16" d="m66.62,113.95s0,0,0,0c0,0,0,0,0,0,0,0,.01-.01,0,0Z"/><path class="cls-16" d="m66.22,114.05s0,0-.01,0c0,0,0,0,0,0,0,0,.01,0,.02,0Z"/><path class="cls-16" d="m66.2,114.05s-.01,0,0,0c0,0,0,0,0,0Z"/><path class="cls-16" d="m67.07,112.79c-.1-.13-.26-.22-.44-.16-.02,0-.04.02-.06.03,0,0-.02,0-.04.02-.01,0-.02,0-.03.01.01,0,.01,0,.02,0-.02,0-.04.02-.06.03-.07.04-.14.09-.2.14-.11.03-.34.11-.37.17-.09.1-.12.21-.14.3-.13.25-.04.55.21.64,0,0-.02.01-.02.01.01,0,.02,0,.03,0,.01,0,.03,0,.04,0,.04.02.07.05.12.06,0,0,.02,0,.02,0,.01,0,.03,0,.04,0,.02,0,.04,0,.06,0-.03.02-.04.03-.02.03.01,0,.03-.01.04-.02-.03.02-.06.04-.09.06.01,0,.04-.02.06-.02-.03.02-.05.04-.08.06-.01,0-.03.02-.04.02,0,0,.01,0,.02,0,0,0,0,0-.01,0,0,0,.01,0,.02-.01,0,0,.01,0,.02,0h0s-.05.03-.06.02c0,0,.01,0,.02,0,0,0-.01,0-.02,0,.01,0,.02,0,.04,0h0s0,0,0,0c.01,0,.02,0,.03,0-.03.02-.06.04-.08.06.01,0,.03-.02.04-.02.06-.03.12-.06.19-.09.08-.03.16-.08.23-.13-.02.01-.04.02-.05.04.09-.07.19-.09.29-.15-.02,0-.03.01-.05.02.01,0,.03-.01.03-.02-.03,0-.06.02-.09.03.04-.03.08-.05.11-.08-.01,0-.03.01-.04.02.03-.03.06-.06.08-.09-.05.02-.09.06-.14.08.03-.03.07-.06.08-.08,0,0,0,0,.01-.01,0,0,0,0,0,0,.06-.03.12-.06.17-.1.18-.09.32-.22.32-.45.01-.16-.08-.28-.2-.37Z"/><path class="cls-3" d="m66.74,113.83c-.07.07-.16.11-.25.15"/><path class="cls-3" d="m66.73,113.83c-.04.07-.11.1-.18.12"/><path class="cls-3" d="m64.04,112.67s-.03.08-.05.12"/><path class="cls-16" d="m64.04,112.66s0,0,0,0c0,0,0-.01,0-.01,0,0,0,0,0,.01,0,0,0,0,0,0,0,0,0,0,0,0,0,0,0,.02-.01.03,0,0,0,0,0,0-.01.02-.04.05-.02.07,0,0,.01-.01.02,0,0,0,0,.02,0,.03,0,0,0,0,0,0"/><path class="cls-3" d="m64.03,112.68c0,.05-.01.1-.04.14"/><path class="cls-23" d="m84.46,114.06s0,0,0,0c0,0,0,0,0,0,.02-.04,0,0,0,.01Z"/><path class="cls-23" d="m92.04,112.22s0,.01,0,.03c0,0,0-.02,0-.02.09.23.01-.06,0-.05,0-.13-.06-.28-.13-.4,0-.26-.07-.52-.28-.74-.24-.11-.48-.14-.71-.11-.42-.09-.96.08-1.26.12-.43,0-.93.4-1.16.59-.21.1-.52.51-.64.69-.06.07-.13.13-.2.19-.01,0-.02,0-.03,0-.33.13-.62.27-.96.27-.24.01-.44.12-.66.12-.2-.02-.57.03-.72.18-.02.02-.22.12-.23.16-.42.18-.42.37-.57.81-.03.08-.07.16-.08.2-.59,1.16.42,1.98,1.41,1.7.08-.03.15-.07.22-.12,0,0,.01,0,.02,0,.46,0,.96-.18,1.35-.23,1.11-.21,1.88-.64,2.98-1.31.36-.24.77-.42,1.09-.72.24-.27.49-.53.61-.88-.02-.47-.02-.48-.02-.49,0,0,0,0,0,0Zm-5.57,2.48s-.03.01-.04.02c0,0-.05.02-.01,0-.05-.01-.24.14-.19.1,0,0-.06.03-.02.01-.23.1-.42.33-.59.4-.04.02-.14,0-.23,0-.06-.02-.11-.05-.14-.08-.11-.2-.11-.41-.1-.64,0-.28.02-.31.07-.57.14-.51.67-.61,1.13-.74.62.01,1.25-.04,1.77-.4.37-.32.94-.62,1.31-.74.11-.05.35-.17.47-.04.07.08-.02.23-.04.36,0,.02,0,.04,0,.06,0,0,0,0,0,0-.42.22-.89.52-1.35.82-.27.18-.41.48-.66.66-.35.26-.77.42-1.12.65-.07.05-.16.05-.24.11Z"/><path class="cls-22" d="m63.99,106.84c-.37-.39-.69-.9-1-1.08-.2-.03-.33.05-.38.16-.07.03-.07.09-.02.17,0,.05.02.11.04.16,0,0,0,0,0,0,0,0,.01.01.02.02.04.08.1.16.18.21.09.11.18.23.28.32.09.16.2.37.28.49.01.02.02.04.03.07.01.03.02.05.03.08.06.13.24.14.31.02.02-.07.01-.14,0-.2.18,0,.34-.13.23-.42Z"/><path class="cls-16" d="m67.6,109.5c-.14-.54-.24-.77-.36-1.03-.08-.19-.13-.38-.26-.69-.24-.81-1.11-1.86-1.72-2.24-.71-.59-1.63-.92-2.38-1.47.41.41.73.87,1.1,1.3.17.22.11-.42.26-.17.05.07-.24-.15-.19-.07-.16-.14.67.23.5.09-.07-.07.32.44.27.38-.14-.16-1.07-.25-1.23-.35-.09-.09-.21-.17-.31-.24-.03-.03-.16-.12-.21-.15-.08-.06-.2-.12-.31-.18-.04-.08-.08-.16-.1-.27,0,.08.01.15.02.23-.25-.13-.5-.27-.5-.53-.06.28.16.47.35.65-.04-.02-.07-.05-.1-.07.18.15.23.22.38.4.08.12.28.32.37.42.11.13.22.26.31.4.25.37.49.7.68,1.01.17.28.26.5.45.82.51.84.84,1.28,1.28,2.37.07.18.07.39.13.57.09.28.24.58.36.9.05.32.1.67.22.87-.03-.21-.01-.41,0-.62.03-.13.04-.26.05-.4.1.17.15.24.08-.08-.03-.17-.05-.34-.07-.51-.02-.44-.07-.83-.1-.97-.02-.21-.07-.51-.15-.82.33.54.63,1.07.8,1.67.11.34.35.72.39,1.04.06,0,.03-.11.05-.15.03-.71.06-1.39-.06-2.07Z"/><path class="cls-16" d="m25.09,70.59c-.65.69-1.25,1.42-1.83,2.17.56-.92,1.03-1.91,1.61-2.78-1.35,1.15-2.06,2.82-3.03,4.27-.25.3-.45.64-.56,1.03.24-.48.68-.79,1.02-1.18-.58.87-1.12,1.78-1.56,2.73,1.71-1.87,3.22-4.01,4.36-6.24Z"/><path class="cls-17" d="m25.91,61.3c-.11-1.03-.41-2.06-.7-3.04.07.63.09,1.27.11,1.91-.05.92-.16,1.81-.16,2.73-.02.3-.05.61-.07.92-.03.5-.04,1.05-.06,1.58-.06.29-.13.58-.17.84-.01.03-.02.05-.04.08-.49,1.68-1.11,3.27-1.81,4.82-.5,1.21-.85,2.53-1.82,3.46,1.46-.97,2.25-2.59,3.06-4.09.19-.38.33-.76.44-1.15.24-.52.39-1.07.6-1.62.07-.19.13-.39.18-.59.19-.48.33-.98.37-1.5.17-1.24.06-2.94.07-4.33Z"/><path class="cls-15" d="m15.74,64.73c-.64.2-1.17.58-1.67,1.02-.97.57-1.66,1.41-2.37,2.3-.93,1.3-1.6,3.19-2.21,4.89.14-.23.3-.48.45-.72-.02.07-.04.15-.05.21.25-.6.68-1.08,1.07-1.6.33-.66.81-1.21,1.16-1.85.15-.22.3-.45.44-.69.41-.5.76-.94,1.2-1.42.26-.32.52-.48.81-.75.24-.28.45-.56.75-.78.45-.28,1.06-.82,1.36-1.04-.33.11-.64.25-.94.43Z"/><path class="cls-12" d="m29.68,34.15l1.35-.35c.66-.17,1.33-.34,2.01-.4"/><path class="cls-11" d="m22.82,39.21c.54-1.05,1.32-1.97,2.26-2.68"/><path class="cls-2" d="m19.84,72.7c6.68-5.89,6.44-12.5,3.55-20.41-2.14-5.85-3.25-13.02,2.97-16.7,4.72-2.79,10.87-2.46,16.13-2.95,7.85-.72,11.82-5.41,15.79-11.9,3.95-6.45,7.83-13.74,15.44-16.28"/><path class="cls-18" d="m48.08,30.84c-.26.09-.65.18-.96.26-.2.07-.34.12-.56.18-.41.08-.72.18-1.04.3-.11.03-.22.05-.32.08-.02,0-.05,0-.07.01-.07.02-.13.04-.2.03,0,0,0,0,0,0-.02,0-.04.02-.04.04-.09.02-.17.04-.25.07-.02,0-.04,0-.07.01.01,0,.02.01.03.01-.1.04-.2.08-.28.14-.14.26.05.45.28.49.05.1.15.18.28.18.03,0,.06-.01.09-.02,0,0,0,0,0,0,.01,0,.02,0,.03,0,.29-.05.67-.19,1-.29.03,0,.05-.01.08-.02.35-.05.76-.04.98-.33.08-.18.06-.31,0-.41.02-.01.04-.02.05-.03-.02,0-.04,0-.07.02-.02-.03-.05-.06-.08-.09.11-.05.22-.11.35-.17.21-.08.53-.27.76-.46Z"/><path class="cls-18" d="m50.8,29.79s0,0,0,0c-.02.01-.03.01,0,0Z"/><path class="cls-18" d="m50.83,29.78s0,0,0,0c0,0-.02.01-.03.01,0,0,0,0,.03-.01Z"/><path class="cls-18" d="m56.55,22.5c-.14.29-.19.25-.3.44-.06.19-.26.38-.32.54-.06.08-.09.07-.12.16,0-.01.01-.03.03-.05-.04.04-.08.07-.12.12-.08.17-.2.37-.29.48-.02.02-.07.09-.02.03,0,0-.02.02-.03.04,0,0-.01.01-.02.02-.23.23-.33.4-.54.65-.25.28-.51.7-.69,1.1-.18.15-.36.32-.45.43.05-.06.01-.02,0,0,.1-.09-.3.18-.36.25,0,0,0,0,0,0-.03.02-.06.05-.09.07-.14.13-.27.27-.39.42.05-.04.06-.05.04-.03-.15.08-.32.38-.34.46-.16.12-.32.24-.48.35-.19.1-.34.23-.51.4-.22.18-.43.38-.64.6-.19.14-.37.29-.47.5,0,0,0,0,0,.01,0,0,0,.02,0,.02,0,0,0,0,0,0,0,0,0,0,0,0-.02.06,0,.14.07.22.03.03.06.03.09.04,0,0-.02.02-.03.02.01,0,.02-.01.04-.02.08.03.16.02.23-.03,0,0,0,0,0,0,.26-.12.44-.3.6-.45.03-.01.06-.04.09-.05.04-.02.24-.08.31-.17.03-.06.04-.11.04-.16.43-.27.67-.49.98-.73.13-.1.3-.34.33-.4-.03.04.23-.21.37-.34.26-.26.33-.23.64-.52.02-.02.04-.04.05-.07-.01.02-.03.04-.02.03.21-.21.6-.6.67-.72.17-.19.24-.44.37-.65.14-.23.33-.5.39-.73.14-.21.32-.51.45-.77.04-.08.07-.17.09-.26-.08.16-.21.29-.33.41-.04.05-.08.1-.13.14.09-.14.17-.28.23-.44.01-.05.08-.09.12-.19,0,0,0,0,0,0,.05-.04.11-.2.13-.28.07-.2.16-.27.17-.46,0-.02.02-.07.03-.09.08-.11.11-.24.14-.38,0-.02,0-.05.03-.05-.01,0-.03,0-.04.02Z"/><path class="cls-18" d="m55.83,23.6s0,0,0,0c.02-.01,0,0,0,0Z"/><path class="cls-18" d="m56.07,23.74s.01-.03,0,0c0,0,0,0,0,0,0,0,0,0,0,0,.01-.02,0,0,0,.01Z"/><path class="cls-20" d="m59.33,19.15c-.37-.05-.5.27-.67.51.06-.17.13-.33.18-.5-.03.06-.07.11-.11.16.01-.02.02-.04.03-.06-.07.07-.14.14-.21.22,0,0,0,0,0-.01,0,0,0,.01-.02.02-.37.39-.71.81-.92,1.3-.1.42-.46.8-.59,1.19.07-.11.16-.2.25-.29-.05.07-.09.15-.14.22-.19.42-.52,1.07-.73,1.53.39-.4.77-.84,1.07-1.32.07-.07.14-.17.21-.27.17,0,.33-.16.48-.36.05,0,.11-.02.15-.07.12-.14.33-.49.51-.73.21-.25.5-.71.58-.87,0,0,0,0,0,0,.01-.02.03-.04.04-.05.02-.04.05-.08.07-.12.11-.19,0-.45-.2-.5Z"/><path class="cls-20" d="m66.36,9.39s0-.02,0-.02c.02-.04.04-.08.06-.12-.02.02-.05.05-.08.08-.05-.04-.17.01-.23.08-.33.26-.68.52-.92.87-.15.2-.48.5-.62.74-.17.25-.27.53-.41.79-.14.24-.34.46-.43.73.1-.15.23-.27.36-.4-.04.06-.08.13-.1.17.04-.04.09-.08.14-.13,0,.03,0,.04,0,.06-.14.2-.28.41-.43.6.83-.62,1.46-1.39,1.96-2.29.28-.47.65-.93.98-1.4-.09.07-.18.16-.27.24Z"/><path class="cls-18" d="m70.84,5.85c-.02-.13-.08-.25-.21-.3.07-.05.14-.1.22-.14.31-.17.75-.41.99-.55-.4.1-.79.21-1.18.35-.62.24-1.07.5-1.62.86-.44.26-.65.32-1.04.6-.32.26-.74.66-1.1,1.06-.39.51-.87,1.21-1.24,1.93.46-.53.97-1.03,1.46-1.48-.3.37-.63.77-.9,1.1.25-.22.56-.38.8-.62.06-.05.12-.09.18-.14-.02.05-.05.09-.07.14.24-.32.58-.53.92-.73-.33.29-.66.59-1.01.88,1.1-.49,1.99-1.25,2.86-2.06.24-.14.48-.28.72-.42.17-.09.23-.28.22-.45.02-.02.04-.04.06-.06-.02.01-.04.03-.07.04Z"/><path class="cls-18" d="m78.62,3.49c-.65,0-1.3.05-1.91.27-1.51.37-3.3,1.18-4.85,1.81,1.35-.26,2.85-.52,3.98-1.02.11-.06.44-.16.6-.24.58-.27,1.31-.64,2.02-.77.05-.02.21-.05.16-.05Z"/><path class="cls-16" d="m72.61,4.03s-.08.03-.13.04c.1-.06.2-.12.3-.18.46-.21.93-.42,1.37-.64-.09.02-.18.04-.27.06.46-.23.93-.45,1.39-.66.25-.11.61-.2.8-.27-.23.02-.46.02-.68.06-1.9.39-3.39.91-5,1.98-.04.02-.07.05-.11.06-.86.36-1.7.8-2.3,1.54.21-.14.42-.27.64-.38-.4.3-.8.65-1.17,1.01-.69.66-1.39,1.33-2.04,2.04-.07.06-.15.12-.21.18.03-.01.06-.03.08-.04-.09.1-.18.18-.27.28.21-.15.42-.31.64-.46,0,0,0,0,.01,0-.18.24-.36.48-.52.73.5-.4,1.01-.81,1.52-1.23,0,0,0,0,0,0,.02-.01.04-.03.06-.05.46-.39.92-.78,1.37-1.17.74-.51,1.5-1.01,2.26-1.49.55-.22,1.1-.46,1.64-.72.86-.32,1.74-.67,2.44-.99.7-.12,1.39-.21,2-.32,1.58-.13,3.1-.57,4.68-.7-2.82-.27-5.97-.1-8.51,1.31Z"/><path class="cls-16" d="m90.66,11.46s-.03.04,0,0c.03-.04,0,0,0,0-.02.02-.03.04-.05.06-.07.08-.16.16-.24.23-.02.01-.01.01.01-.01.03-.02.03-.02.01-.01-.68.52-1.41,1.48-2.15,2.17-.33.33-.67.65-1.02.97-.29.2-.57.42-.84.64-.22.11-.46.22-.75.4-.73.29-.94.61-1.52.94-.26.17-.56.33-.91.54-.51.36-1.02.69-1.55,1.01.47-.19,1.07-.32,1.47-.52.84-.28,1.46-.48,2.27-.98,1.2-.51,1.92-.88,3.05-1.62,1.21-.76,1.99-1.98,2.77-3.17,0,0,0,0,0,0,.07-.1.13-.2.2-.3.06-.08.11-.17.17-.25.02-.03.04-.07.07-.1.13-.2.26-.4.41-.58.6-.79,1.53-2.11,1.82-2.79-1.05,1.1-2.37,2.2-3.2,3.37Z"/><path class="cls-19" d="m65.5,9.51s-.02.02-.02.03c-.02.02-.04.04-.05.05,0,0,0,0,0,0-.01.02-.04.02-.04.03,0,0,.01-.01,0,0-.02.02-.03.02-.06.04-.17.08-.36.25-.52.45-.22.25-.4.52-.56.83.09-.12.2-.22.3-.33,0,0-.01.02-.01.02-.02.04-.05.08-.07.12.02-.02.03-.04.05-.06-.01.02-.02.05-.03.07,0,0,.01-.02.02-.03-.03.07-.06.13-.07.2.05-.17.16-.3.28-.42-.06.09-.11.19-.15.3.21-.38.65-.72.89-1-.09.06-.19.13-.28.2-.05.03-.1.06-.15.09.08-.07.15-.15.24-.21-.07.03-.13.08-.19.12.05-.06.1-.12.19-.2.08-.08.11-.1.16-.17,0-.01,0-.01,0,0,.02,0,.05-.06.05-.07.01-.02.03-.04.02-.06,0,0,0,0,0,0,0,0,.02-.03.03-.04.01-.01.02-.03.03-.04-.02.01-.04.03-.06.05Z"/><line class="cls-7" x1="61.08" y1="14.53" x2="62.8" y2="15.13"/><polyline class="cls-26" points="24.59 58.76 25.66 58.21 25.93 59.36 24.68 59.86"/><path class="cls-24" d="m63.24,108.18s.06.03.1.04c.11.03.29.17.34.07s.04-.11-.06-.17c-.13-.07-.47-.22-.51-.36-.03-.12-.08-.14-.07-.25,0-.02.06-.1.07-.11,0,0,0,0,0,0,.01-.03.12-.09.21-.14.02-.01.04-.02.06-.03.01,0,.03-.01.05-.01,0,0,0,0,0,0,0,0,.1.01.1.01,0,0,.22.1.29.17.11.1.07.16.11.31.02.1,0,.21-.05.29-.06.08-.35.1-.36.21,0,.47.9-.36.7-.76-.17-.35-.42-.62-.78-.62-.25,0-.58.13-.69.35-.1.21.03.45.15.65.08.13.2.31.33.35Z"/></svg>